<?xml version="1.0" standalone="no"?>
<!DOCTYPE svg PUBLIC "-//W3C//DTD SVG 20010904//EN"
 "http://www.w3.org/TR/2001/REC-SVG-20010904/DTD/svg10.dtd">
<svg version="1.0" xmlns="http://www.w3.org/2000/svg"
 width="270.000000pt" height="270.000000pt" viewBox="0 0 270.000000 270.000000"
 preserveAspectRatio="xMidYMid meet">
<metadata>
Created by potrace 1.11, written by Peter Selinger 2001-2013
</metadata>
<g transform="translate(0.000000,270.000000) scale(0.100000,-0.100000)"
fill="#000000" stroke="none">
<path d="M1175 2415 c-341 -53 -644 -278 -795 -590 -70 -144 -110 -315 -110
-470 0 -89 24 -241 50 -325 30 -95 102 -236 159 -311 353 -465 984 -572 1471
-250 74 48 200 170 261 250 57 77 130 218 159 311 81 258 59 550 -60 795 -126
260 -366 467 -644 556 -143 46 -335 59 -491 34z m-83 -629 l3 -254 218 254
219 254 280 0 280 0 -243 -251 c-134 -138 -245 -255 -247 -259 -2 -5 112 -196
252 -426 141 -229 256 -418 256 -420 0 -2 -116 -4 -258 -4 l-258 0 -123 243
c-68 133 -133 257 -144 275 l-20 34 -108 -108 -109 -109 0 -167 0 -168 -210 0
-210 0 0 680 0 680 210 0 210 0 2 -254z"/>
</g>
</svg>
